<svg width="446" height="405" viewBox="0 0 446 405" fill="none" xmlns="http://www.w3.org/2000/svg">
<path d="M410.358 404.446L202.408 371.708L238.033 73.4215L445.983 106.159L410.358 404.446Z" fill="#F7931E"/>
<path d="M392.351 376.49L225.782 350.267L255.444 101.895L422.014 128.118L392.351 376.49Z" fill="#651782"/>
<path d="M392.351 376.49L225.782 350.267L255.444 101.895L422.014 128.118L392.351 376.49Z" stroke="#F7931E" stroke-width="1.33333" stroke-miterlimit="10"/>
<path d="M255.801 338.604L49.6579 383.969L0.292252 88.274L206.435 42.9096L255.801 338.604Z" fill="#F7931E"/>
<path d="M230.95 318.733L65.8278 355.069L24.7232 108.856L189.845 72.5189L230.95 318.733Z" fill="#651782"/>
<path d="M230.95 318.733L65.8278 355.069L24.7232 108.856L189.845 72.5189L230.95 318.733Z" stroke="#F7931E" stroke-width="1.33333" stroke-miterlimit="10"/>
<path d="M335.74 320.402L126.529 300.951L147.696 0.855539L356.906 20.3066L335.74 320.402Z" fill="#F7931E"/>
<path d="M316.41 293.636L148.831 278.056L166.456 28.1781L334.035 43.7583L316.41 293.636Z" fill="#651782"/>
<path d="M316.41 293.636L148.831 278.056L166.456 28.1781L334.035 43.7583L316.41 293.636Z" stroke="#F7931E" stroke-width="1.33333" stroke-miterlimit="10"/>
<path d="M266.774 123.833C267.374 123.555 267.785 120.321 267.187 119.463C264.585 115.728 261.437 114.555 257.57 118.818C259.889 123.415 262.653 125.746 266.774 123.833ZM248.484 116.194C252.869 113.541 256.94 110.075 261.498 107.956C266.302 105.722 268.052 102.604 264.783 98.1806C261.667 93.9649 260.39 85.6537 252.519 89.4772C247.601 91.8664 242.131 92.3648 239.202 99.0431C237.459 103.015 233.748 105.801 231.149 109.341C229.602 111.449 226.95 115.247 227.475 116.095C229.203 118.886 232.155 120.678 235.403 123.526C239.992 120.969 244.303 118.724 248.484 116.194V116.194ZM214.235 172.833C217.81 178.105 220.435 184.214 223.759 189.732C224.786 191.436 226.722 192.417 228.242 193.728C229.07 191.858 230.756 189.859 230.562 188.14C229.979 182.956 229.289 177.572 227.514 172.821C222.773 160.131 218.977 147.685 225.247 134.131C226.094 132.3 225.264 129.447 225.21 127.066C223.304 127.72 221.235 128.026 219.52 129.087C211.841 133.835 210.801 142.895 209.289 148.045C208.171 159.336 209.839 166.35 214.235 172.833V172.833ZM191.54 78.0029C187.366 85.2585 184.688 93.7196 181.863 101.878C181.188 103.828 182.613 106.739 183.073 109.208C184.664 107.942 186.642 107.024 187.782 105.351C193.041 97.6349 199.214 91.5138 207.683 89.0942C213.303 87.4887 216.402 84.3468 217.439 76.9655C218.201 71.5431 222.214 66.7234 224.97 61.256C214.828 57.8367 198.94 65.1385 191.54 78.0029V78.0029ZM252.75 207.035C257.036 193.425 255.4 179.455 254.058 165.596C253.84 163.337 252.023 161.035 250.511 159.234C244.855 152.495 241.152 144.737 239.792 135.427C239.548 133.759 237.966 132.348 237.001 130.818C235.816 132.225 234.042 133.401 233.543 135.077C230.281 146.028 231.948 156.683 235.678 167.061C236.836 170.283 238.403 173.31 239.624 176.506C243.118 185.65 246.959 194.658 246.242 205.16C246.069 207.688 247.039 210.319 247.484 212.902C248.068 213.067 248.652 213.232 249.237 213.396C250.43 211.285 252.024 209.341 252.75 207.035V207.035ZM200.428 144.607C200.593 136.756 203.884 130.78 209.113 126.223C216.836 119.494 220.261 110.539 220.153 99.6465C220.139 98.2267 219.539 96.0069 218.687 95.5977C217.465 95.012 215.364 95.1394 214.328 96.0251C207.535 101.84 200.659 107.593 194.315 114.024C182.602 125.897 185.384 148.905 195.993 160.361C196.684 161.107 197.714 161.438 199.876 162.738C200.09 155.841 200.31 150.225 200.428 144.607V144.607ZM175.855 58.8942C193.559 49.5201 211.499 47.3731 230.121 55.7122C233.102 57.047 237.153 54.8879 240.687 55.0281C244.559 55.1811 248.997 54.9449 252.125 57.007C256.684 60.0129 256.103 63.8559 252.021 67.0651C252.349 69.3293 252.646 71.3768 252.942 73.4242C251.299 72.5762 249.325 72.141 248.07 70.8104C241.844 64.2116 232.356 65.8924 228.517 74.742C226.918 78.4254 225.475 82.4395 225.054 86.4543C224.839 88.5163 226.601 91.8124 228.27 92.8504C229.46 93.5897 232.991 92.1378 233.755 90.5614C239.619 78.4733 251.231 82.9682 259.675 78.4952C260.358 78.1334 262.694 81.0021 263.752 82.7722C264.479 83.9868 263.868 86.2965 264.627 87.4401C276.821 105.812 280.563 130.6 297.934 145.081C302.131 148.579 305.992 152.738 309.501 157.127C310.822 158.779 310.708 161.947 311.248 164.424C308.817 165.037 306.375 166.159 303.962 166.081C302.454 166.032 300.99 164.177 298.235 162.237C299.134 166.319 299.721 168.984 300.167 171.006C289.329 173.573 279.191 169.728 269.103 165.069C265.613 163.457 261.66 162.093 258.301 167.259C265.286 170.89 272.081 174.421 278.895 177.963C278.527 178.815 278.377 179.493 278.212 179.498C269.016 179.79 268.712 180.803 271.684 192.129C277.9 215.819 283.848 239.643 281.041 264.847C280.091 273.381 278.473 281.816 277.161 290.297C234.24 286.131 191.32 281.965 148.401 277.799C153.628 206.822 158.824 136.254 164.02 65.6872C167.962 63.4152 171.852 61.0139 175.855 58.8942" fill="white"/>
<path d="M257.076 58.6488C258.335 64.5065 259.371 69.3274 260.408 74.1477L262.819 73.6784C262.372 69.8986 261.924 66.1187 261.317 60.9907C266.018 65.8031 270.266 70.1517 274.705 74.6946C278.306 68.6342 277.857 62.7079 274.182 58.8067C269.282 53.6021 263.276 56.5291 257.076 58.6488Z" fill="white"/>
</svg>
